<?xml version="1.0" standalone="no"?>
<!DOCTYPE svg PUBLIC "-//W3C//DTD SVG 20010904//EN"
 "http://www.w3.org/TR/2001/REC-SVG-20010904/DTD/svg10.dtd">
<svg version="1.0" xmlns="http://www.w3.org/2000/svg"
 width="147.000000pt" height="263.000000pt" viewBox="0 0 147.000000 263.000000"
 preserveAspectRatio="xMidYMid meet">
<metadata>
Created by potrace 1.15, written by Peter Selinger 2001-2017
</metadata>
<g transform="translate(0.000000,263.000000) scale(0.100000,-0.100000)"
fill="#000000" stroke="none">
<path d="M632 2574 c-189 -41 -336 -149 -395 -289 -70 -166 -71 -517 -1 -720
8 -26 14 -49 12 -51 -2 -2 -48 -6 -101 -10 -54 -4 -100 -11 -103 -16 -3 -5 23
-48 59 -96 35 -48 81 -112 101 -143 l37 -56 -32 -52 c-47 -75 -50 -138 -11
-214 l30 -58 -38 -102 c-55 -146 -74 -249 -68 -372 4 -73 12 -117 29 -160 28
-70 49 -80 67 -31 16 43 90 104 147 121 l44 14 26 -79 26 -79 -37 -33 c-21
-18 -58 -53 -83 -78 l-46 -45 174 -3 c96 -1 176 0 179 3 3 3 0 35 -7 72 -9 50
-9 68 0 73 6 4 15 47 20 95 5 48 11 91 15 96 3 5 16 9 29 9 20 0 30 -11 51
-52 15 -29 32 -70 38 -93 10 -32 18 -42 46 -51 32 -11 35 -16 50 -80 l15 -69
130 -3 c72 -2 150 0 175 3 l45 7 -92 87 -92 86 -7 79 -7 78 24 -7 c46 -14 158
-77 199 -112 32 -28 41 -41 37 -60 -2 -13 0 -26 5 -29 15 -10 45 24 68 79 20
46 22 63 17 147 -9 167 -64 388 -132 537 l-33 71 15 55 c21 74 12 102 -54 166
l-55 53 59 62 c105 108 163 178 158 187 -4 5 -57 6 -125 2 l-119 -6 42 86 c36
74 45 86 68 86 47 2 121 60 151 121 41 81 51 151 38 267 -6 54 -14 101 -19
106 -4 4 -20 3 -35 -3 -40 -15 -41 -14 -55 43 -20 78 -59 143 -119 198 -92 84
-192 121 -329 123 -46 1 -83 2 -83 4 0 2 7 10 15 19 8 8 13 19 10 24 -9 13
-99 9 -173 -7z m-234 -327 c30 -27 54 -75 78 -149 9 -31 23 -59 30 -62 7 -3
22 10 33 28 33 53 127 135 185 162 157 72 310 17 365 -129 27 -74 27 -152 -1
-273 -26 -116 -21 -126 50 -90 54 27 54 28 77 161 12 67 62 161 107 199 23 20
45 36 48 36 10 0 20 -79 20 -148 0 -31 -8 -83 -17 -116 -21 -74 -84 -143 -153
-166 -40 -14 -48 -22 -85 -88 -185 -337 -525 -399 -788 -144 -82 80 -121 232
-120 472 0 245 37 352 117 336 16 -4 41 -16 54 -29z m650 -969 c122 -88 182
-148 182 -181 0 -39 -32 -118 -80 -197 -61 -101 -66 -103 -79 -28 -20 117 -24
194 -12 216 10 18 9 21 -3 16 -11 -4 -18 6 -27 40 -16 65 -28 57 -22 -14 6
-63 -2 -74 -30 -42 -24 27 -57 104 -57 135 0 41 21 117 32 117 5 0 49 -28 96
-62z m-678 -43 c-20 -58 -33 -80 -44 -79 -13 2 -14 -1 -5 -12 8 -10 7 -35 -5
-101 -9 -49 -16 -107 -16 -130 0 -24 -5 -43 -10 -43 -16 0 -69 89 -76 126 -9
50 4 90 54 162 47 70 123 164 128 159 1 -1 -10 -38 -26 -82z m326 -495 c113
-31 246 -82 237 -90 -11 -11 -164 -30 -239 -30 -58 0 -64 2 -68 23 -9 43 -13
117 -7 117 3 0 38 -9 77 -20z m-91 -27 c3 -21 8 -51 10 -67 l5 -29 -100 5
c-55 3 -103 8 -107 12 -11 10 148 116 174 116 7 0 15 -17 18 -37z"/>
<path d="M749 1997 c-47 -31 -79 -98 -79 -164 0 -29 2 -53 3 -53 2 0 30 9 63
21 33 12 97 23 147 26 74 5 87 8 83 22 -2 9 -8 32 -11 51 -21 101 -126 151
-206 97z"/>
<path d="M276 1945 c-20 -18 -26 -34 -26 -64 l0 -40 48 -6 c26 -4 67 -16 91
-26 24 -10 47 -16 52 -13 5 3 9 27 9 54 0 41 -5 55 -31 85 -26 30 -37 35 -74
35 -31 0 -49 -6 -69 -25z"/>
<path d="M785 1548 c-40 -14 -102 -23 -190 -28 -71 -4 -122 -7 -113 -8 9 -1
24 -17 33 -36 26 -54 57 -58 75 -10 8 21 16 24 62 24 29 0 70 4 90 9 35 8 37
7 47 -20 23 -67 95 -5 77 67 -7 28 -4 28 -81 2z"/>
</g>
</svg>
